Patient4_TMGait_0pt2_01_right_13_GRF.mot
version=1
nRows=58
nColumns=19
inDegrees=no
endheader
time	F1x	F1y	F1z	M1x	M1y	M1z	F2x	F2y	F2z	M2x	M2y	M2z	EC1x	EC1y	EC1z	EC2x	EC2y	EC2z
28.27	-10.5696	783.8036	46.5168	-289.5102	-52.807	804.808	4.545	16.9886	-0.37341	5.4057	-1.3798	16.8197	-0.0592	0.0182	-0.0073	-0.0462	0.0165	0.9585
28.2949	-12.069	798.5269	50.418	-294.1205	-56.6016	818.9563	2.8005	12.3186	0.031339	3.9672	-1.073	12.1363	-0.0592	0.0182	-0.0073	-0.0462	0.0165	0.9585
28.3199	-13.3142	814.2288	53.9255	-299.1596	-59.8651	833.7429	1.3047	8.2629	0.27889	2.7118	-0.7123	8.0812	-0.0592	0.0182	-0.0073	-0.0462	0.0165	0.9585
28.3448	-14.0657	829.3476	56.518	-304.1548	-62.0168	847.4967	0.14727	5.1119	0.37918	1.7329	-0.34657	4.94	-0.0592	0.0182	-0.0073	-0.0462	0.0165	0.9585
28.3697	-14.1197	842.1334	57.8969	-308.5159	-62.6989	858.3677	-0.64173	2.8689	0.35272	1.0324	-0.010832	2.7114	-0.0592	0.0182	-0.0073	-0.0462	0.0165	0.9585
28.3946	-13.3747	850.824	58.0043	-311.5956	-61.8234	864.5492	-1.0941	1.4012	0.25285	0.56981	0.25652	1.254	-0.0592	0.0182	-0.0073	-0.0462	0.0165	0.9585
28.4196	-11.8538	854.0457	56.9598	-312.8538	-59.5228	864.6952	-1.2696	0.50459	0.13099	0.28141	0.43174	0.35696	-0.0592	0.0182	-0.0073	-0.0462	0.0165	0.9585
28.4445	-9.6603	851.2285	54.9923	-312.0292	-56.0689	858.3121	-1.231	-0.049263	0.026129	0.094822	0.50424	-0.20573	-0.0592	0.0182	-0.0073	-0.0462	0.0165	0.9585
28.4694	-6.9131	842.7881	52.3974	-309.2204	-51.8053	845.8985	-1.0457	-0.47029	-0.038088	-0.056036	0.47921	-0.64323	-0.0592	0.0182	-0.0073	-0.0462	0.0165	0.9585
28.4944	-3.7308	830.0014	49.5098	-304.852	-47.1118	828.8076	-0.78476	-0.92777	-0.055253	-0.22255	0.37929	-1.1285	-0.0592	0.0182	-0.0073	-0.0462	0.0165	0.9585
28.5193	-0.23657	814.6987	46.6609	-299.5689	-42.3619	808.9331	-0.50753	-1.5502	-0.027871	-0.44354	0.23163	-1.7922	-0.0592	0.0182	-0.0073	-0.0462	0.0165	0.9585
28.5442	3.455	798.8662	44.1242	-294.0886	-37.8666	788.3037	-0.24597	-2.431	0.040266	-0.74804	0.052721	-2.7324	-0.0592	0.0182	-0.0073	-0.0462	0.0165	0.9585
28.5691	7.2435	784.2423	42.0845	-289.046	-33.8449	768.6888	-0.011071	-3.6112	0.14458	-1.149	-0.14967	-3.9913	-0.0592	0.0182	-0.0073	-0.0462	0.0165	0.9585
28.5941	11.0313	772.021	40.6373	-284.8789	-30.4315	751.3266	0.19783	-5.0452	0.27807	-1.6322	-0.36992	-5.5148	-0.0592	0.0182	-0.0073	-0.0462	0.0165	0.9585
28.619	14.7199	762.7023	39.812	-281.7713	-27.6967	736.7935	0.38529	-6.5561	0.42792	-2.14	-0.59587	-7.1031	-0.0592	0.0182	-0.0073	-0.0462	0.0165	0.9585
28.6439	18.2146	756.1402	39.5957	-279.6656	-25.6666	725.0475	0.55149	-7.7877	0.57042	-2.5545	-0.80248	-8.3592	-0.0592	0.0182	-0.0073	-0.0462	0.0165	0.9585
28.6689	21.4325	751.7355	39.9473	-278.3326	-24.3352	715.6084	0.68448	-8.1523	0.66473	-2.6803	-0.94357	-8.6358	-0.0592	0.0182	-0.0073	-0.0462	0.0165	0.9585
28.6938	24.3025	748.5998	40.8035	-277.4332	-23.6666	707.7094	0.75459	-6.7865	0.64826	-2.2311	-0.94326	-6.9965	-0.0592	0.0182	-0.0073	-0.0462	0.0165	0.9585
28.7187	26.7727	745.6416	42.0637	-276.5545	-23.5771	700.3755	0.71194	-2.5433	0.436	-0.82831	-0.69261	-2.2126	-0.0592	0.0182	-0.0073	-0.0462	0.0165	0.9585
28.7436	28.7977	741.6059	43.5892	-275.2262	-23.9425	692.4709	0.48517	5.9509	-0.078932	1.9825	-0.052847	7.169	-0.0592	0.0182	-0.0073	-0.0462	0.0165	0.9585
28.7686	30.3019	735.0564	45.2168	-272.9086	-24.6319	682.6968	-0.0167	20.1299	-1.0178	6.6765	1.1363	22.6465	-0.0592	0.0182	-0.0073	-0.0462	0.0165	0.9585
28.7935	31.1769	724.3625	46.755	-268.9934	-25.5058	669.6023	-0.89558	41.1649	-2.4966	13.644	3.0363	45.4089	-0.0592	0.0182	-0.0073	-0.0462	0.0165	0.9585
28.8184	31.3352	707.8856	47.9669	-262.8758	-26.3866	651.7388	-2.2447	69.4424	-4.5929	23.018	5.7681	75.7637	-0.0592	0.0182	-0.0073	-0.0462	0.0165	0.9585
28.8434	30.7843	684.3741	48.6055	-254.1017	-27.0687	628.0041	-4.1036	104.108	-7.2897	34.5233	9.3295	112.6465	-0.0592	0.0182	-0.0073	-0.0462	0.0165	0.9585
28.8683	29.623	653.3925	48.494	-242.5183	-27.3873	598.0227	-6.3927	143.3023	-10.4567	47.5549	13.5531	153.9194	-0.0592	0.0182	-0.0073	-0.0462	0.0165	0.9585
28.8932	27.9915	615.534	47.571	-228.3482	-27.2661	562.3284	-8.8353	185.0213	-13.8615	61.4687	18.0945	197.3193	-0.0592	0.0182	-0.0073	-0.0462	0.0165	0.9585
28.9181	26.0285	572.289	45.8788	-212.1485	-26.7081	522.2397	-11.1274	228.1709	-17.2481	75.929	22.5776	241.5961	-0.0592	0.0182	-0.0073	-0.0462	0.0165	0.9585
28.9431	23.8279	525.5624	43.5079	-194.6365	-25.758	479.431	-13.087	272.55	-20.4606	90.8878	26.78	286.5287	-0.0592	0.0182	-0.0073	-0.0462	0.0165	0.9585
28.968	21.4444	477.1663	40.5608	-176.5034	-24.4674	435.4673	-14.6871	318.0166	-23.4602	106.2928	30.6554	332.0486	-0.0592	0.0182	-0.0073	-0.0462	0.0165	0.9585
28.9929	18.9678	428.6311	37.1505	-158.3389	-22.8731	391.6288	-16.0062	363.9343	-26.255	121.9025	34.2383	377.6319	-0.0592	0.0182	-0.0073	-0.0462	0.0165	0.9585
29.0179	16.5717	381.245	33.4142	-140.6404	-20.9992	348.9555	-17.1718	409.2388	-28.8209	137.3205	37.5377	422.3261	-0.0592	0.0182	-0.0073	-0.0462	0.0165	0.9585
29.0428	14.4823	336.0551	29.5101	-123.8099	-18.8697	308.273	-18.277	452.8577	-31.0862	152.1489	40.4949	465.1418	-0.0592	0.0182	-0.0073	-0.0462	0.0165	0.9585
29.0677	12.9215	293.7751	25.6004	-108.1182	-16.5154	270.1346	-19.344	493.9994	-32.9851	166.0887	43.0302	505.3339	-0.0592	0.0182	-0.0073	-0.0462	0.0165	0.9585
29.0926	12.052	254.7195	21.8185	-93.6794	-13.9663	234.781	-20.3751	532.2549	-34.5085	178.9736	45.1202	542.5271	-0.0592	0.0182	-0.0073	-0.0462	0.0165	0.9585
29.1176	11.9443	218.8003	18.2396	-80.4505	-11.2406	202.1335	-21.4274	567.609	-35.7178	190.7757	46.8425	576.7571	-0.0592	0.0182	-0.0073	-0.0462	0.0165	0.9585
29.1425	12.5754	185.6505	14.8983	-68.2777	-8.3624	171.8764	-22.6256	600.3622	-36.7109	201.5851	48.3473	608.4038	-0.0592	0.0182	-0.0073	-0.0462	0.0165	0.9585
29.1674	13.8038	154.8233	11.8111	-56.9757	-5.394	143.626	-24.0991	630.9588	-37.5803	211.5541	49.7883	637.9878	-0.0592	0.0182	-0.0073	-0.0462	0.0165	0.9585
29.1924	15.3334	125.97	8.9874	-46.3988	-2.4602	117.0913	-25.9075	659.6899	-38.4113	220.789	51.2835	665.841	-0.0592	0.0182	-0.0073	-0.0462	0.0165	0.9585
29.2173	16.7024	99.0029	6.4613	-36.5016	0.2226	92.2128	-27.9883	686.3931	-39.2915	229.2467	52.8997	691.7865	-0.0592	0.0182	-0.0073	-0.0462	0.0165	0.9585
29.2422	17.332	74.2197	4.3055	-27.3881	2.3581	69.2799	-30.099	710.3608	-40.2594	236.7129	54.5794	715.0327	-0.0592	0.0182	-0.0073	-0.0462	0.0165	0.9585
29.2671	16.701	52.2563	2.5894	-19.2935	3.6732	48.8987	-31.8471	730.4812	-41.2573	242.8561	56.1129	734.341	-0.0592	0.0182	-0.0073	-0.0462	0.0165	0.9585
29.2921	14.6407	33.7961	1.3323	-12.4775	4.067	31.7319	-32.8194	745.5375	-42.1339	247.3271	57.193	748.3741	-0.0592	0.0182	-0.0073	-0.0462	0.0165	0.9585
29.317	11.532	19.2426	0.51138	-7.0964	3.685	18.1777	-32.6995	754.62	-42.6968	249.8914	57.5125	756.143	-0.0592	0.0182	-0.0073	-0.0462	0.0165	0.9585
29.3419	8.0676	8.6187	0.060239	-3.1639	2.8346	8.2633	-31.3309	757.4843	-42.7766	250.535	56.8448	757.3641	-0.0592	0.0182	-0.0073	-0.0462	0.0165	0.9585
29.3669	4.8596	1.5716	-0.1223	-0.55228	1.831	1.6682	-28.7307	754.7074	-42.2892	249.4993	55.1048	752.5903	-0.0592	0.0182	-0.0073	-0.0462	0.0165	0.9585
29.3918	2.2411	-2.5543	-0.13208	0.97928	0.88517	-2.2056	-25.1063	747.7667	-41.2734	247.2985	52.398	743.2742	-0.0592	0.0182	-0.0073	-0.0462	0.0165	0.9585
29.4167	0.3113	-4.521	-0.044771	1.7113	0.10348	-4.0639	-20.8677	739.1248	-39.8794	244.7488	49.0217	731.8559	-0.0592	0.0182	-0.0073	-0.0462	0.0165	0.9585
29.4416	-0.976	-5.0442	0.08459	1.9084	-0.47859	-4.575	-16.5769	731.991	-38.3286	242.8936	45.4126	721.5417	-0.0592	0.0182	-0.0073	-0.0462	0.0165	0.9585
29.4666	-1.739	-4.7141	0.22075	1.789	-0.87171	-4.2892	-12.8459	729.6349	-36.8331	242.783	42.0344	715.6236	-0.0592	0.0182	-0.0073	-0.0462	0.0165	0.9585
29.4915	-2.1152	-3.9678	0.34479	1.5137	-1.1103	-3.6138	-10.1957	734.5759	-35.518	245.2106	39.2438	716.6586	-0.0592	0.0182	-0.0073	-0.0462	0.0165	0.9585
29.5164	-2.2327	-3.0952	0.44647	1.1898	-1.2357	-2.8227	-8.9262	747.9685	-34.3988	250.5078	37.2049	725.852	-0.0592	0.0182	-0.0073	-0.0462	0.0165	0.9585
29.5414	-2.1973	-2.2694	0.52196	0.8832	-1.2862	-2.0774	-9.0803	769.2346	-33.422	258.4199	35.9036	742.702	-0.0592	0.0182	-0.0073	-0.0462	0.0165	0.9585
29.5663	-2.0882	-1.582	0.57286	0.62954	-1.2913	-1.4607	-10.4454	796.0189	-32.4996	268.0926	35.1803	764.965	-0.0592	0.0182	-0.0073	-0.0462	0.0165	0.9585
29.5912	-1.9564	-1.0721	0.60631	0.44263	-1.2735	-1.0079	-12.5781	824.4372	-31.5505	278.1609	34.7813	788.9037	-0.0592	0.0182	-0.0073	-0.0462	0.0165	0.9585
29.6161	-1.8331	-0.75042	0.63175	0.32449	-1.2509	-0.72515	-14.9176	849.7632	-30.5205	286.9851	34.4294	809.9597	-0.0592	0.0182	-0.0073	-0.0462	0.0165	0.9585
29.6411	-1.7351	-0.61279	0.65772	0.27256	-1.2399	-0.60441	-16.9282	867.4728	-29.3799	293.014	33.8831	823.7753	-0.0592	0.0182	-0.0073	-0.0462	0.0165	0.9585
29.666	-1.6701	-0.65378	0.6883	0.2859	-1.2501	-0.64155	-18.1666	874.3812	-28.1211	295.1791	32.964	827.2752	-0.0592	0.0182	-0.0073	-0.0462	0.0165	0.9585
29.6909	-1.6407	-0.87657	0.7212	0.36765	-1.2792	-0.84281	-18.3506	869.4777	-26.7665	293.18	31.5907	819.4572	-0.0592	0.0182	-0.0073	-0.0462	0.0165	0.9585
